<svg width="32" height="32" viewBox="0 0 32 32" fill="none" xmlns="http://www.w3.org/2000/svg">
<path d="M13.1515 31.8829C15.5165 31.8829 17.495 30.1969 17.9495 27.9651H8.35352C8.80798 30.1969 10.7865 31.8829 13.1515 31.8829Z" fill="#FD5B2F"/>
<path d="M23.0448 19.4716C23.0108 19.4716 22.9795 19.4769 22.9455 19.4769C17.1851 19.4769 12.4981 14.7899 12.4981 9.02943C12.4981 6.76625 13.2294 4.67546 14.457 2.96208V1.84682C14.457 1.12464 13.872 0.540894 13.1511 0.540894C12.4302 0.540894 11.8452 1.12464 11.8452 1.84682V3.25722C7.42197 3.89452 4.00958 7.69869 4.00958 12.2942V15.9352C4.00958 18.5196 2.87734 20.9591 0.891025 22.6385C0.383019 23.0734 0.0917969 23.7055 0.0917969 24.3741C0.0917969 25.6343 1.11695 26.6595 2.37717 26.6595H23.925C25.1852 26.6595 26.2104 25.6343 26.2104 24.3741C26.2104 23.7055 25.9191 23.0734 25.3981 22.6281C24.369 21.757 23.575 20.6731 23.0448 19.4716Z" fill="#FD5B2F"/>
<path d="M22.9456 0.540771C18.2651 0.540771 14.457 4.34886 14.457 9.0293C14.457 13.7098 18.2651 17.5178 22.9456 17.5178C27.626 17.5178 31.4341 13.7098 31.4341 9.0293C31.4341 4.34886 27.626 0.540771 22.9456 0.540771ZM26.2104 10.3352H24.2515V12.2941C24.2515 13.015 23.6664 13.6001 22.9456 13.6001C22.2247 13.6001 21.6396 13.015 21.6396 12.2941V10.3352H19.6807C18.9599 10.3352 18.3748 9.75018 18.3748 9.0293C18.3748 8.30843 18.9599 7.72338 19.6807 7.72338H21.6396V5.76448C21.6396 5.04361 22.2247 4.45856 22.9456 4.45856C23.6664 4.45856 24.2515 5.04361 24.2515 5.76448V7.72338H26.2104C26.9313 7.72338 27.5163 8.30843 27.5163 9.0293C27.5163 9.75018 26.9313 10.3352 26.2104 10.3352Z" fill="#FD5B2F"/>
</svg>
