<svg width="22" height="19" viewBox="0 0 22 19" fill="none" xmlns="http://www.w3.org/2000/svg">
<path d="M15.9559 7.44921C15.9482 7.44921 15.9404 7.44921 15.9328 7.44925C14.0557 7.45717 12.4038 8.43216 11.4551 9.92982H5.73401V9.66067V8.66393C5.73401 8.26509 5.40953 7.94065 5.01074 7.94065H3.52296C3.12412 7.94065 2.79968 8.26513 2.79968 8.66393V9.66067V9.92982H2.56768C1.69846 9.92982 0.991344 9.22266 0.991344 8.35344V6.01126C0.991344 5.14205 1.69846 4.43489 2.56768 4.43489H17.4269C18.2961 4.43489 19.0032 5.14205 19.0032 6.01126V7.64261C19.0032 7.81173 19.1403 7.94881 19.3094 7.94881C19.4785 7.94881 19.6156 7.81173 19.6156 7.64261V6.01126C19.6156 4.80439 18.6337 3.82249 17.4268 3.82249H14.168V2.45646C14.168 1.10764 13.0706 0.0102539 11.7218 0.0102539H8.27269C6.92388 0.0102539 5.82649 1.10764 5.82649 2.45646V3.82249H2.56768C1.36076 3.82249 0.378906 4.80439 0.378906 6.01126V15.3021C0.378906 16.509 1.36076 17.4909 2.56768 17.4909H11.8636C12.0327 17.4909 12.1698 17.3538 12.1698 17.1847C12.1698 17.0156 12.0327 16.8785 11.8636 16.8785H2.56768C1.69846 16.8785 0.991344 16.1713 0.991344 15.3021V9.86958C1.38981 10.2837 1.94895 10.5422 2.56768 10.5422H2.79968V10.8677C2.79968 11.6733 3.45448 12.3348 4.26685 12.3348C5.07248 12.3348 5.73401 11.68 5.73401 10.8677V10.5422H11.1219C10.8011 11.2379 10.6334 12.0012 10.6368 12.7901C10.6491 15.7152 13.0326 18.0863 15.9549 18.0862C15.9624 18.0862 15.9701 18.0862 15.9776 18.0862C18.917 18.0738 21.2861 15.6851 21.2737 12.7453C21.2615 9.84962 18.9178 7.44921 15.9559 7.44921ZM12.2953 3.82249H7.6991V2.45646C7.6991 2.14018 7.95641 1.88283 8.27273 1.88283H11.7218C12.0381 1.88283 12.2954 2.14014 12.2954 2.45646V3.82249H12.2953ZM6.43893 2.45646C6.43893 1.4453 7.26158 0.622651 8.27273 0.622651H11.7218C12.733 0.622651 13.5556 1.4453 13.5556 2.45646V3.82249H12.9078V2.45646C12.9078 1.80247 12.3758 1.27043 11.7218 1.27043H8.27273C7.61875 1.27043 7.08671 1.80247 7.08671 2.45646V3.82249H6.43893V2.45646ZM3.52296 8.55304H5.01074C5.07187 8.55304 5.12162 8.60279 5.12162 8.66393V9.35447H3.41208V8.66393C3.41208 8.60275 3.46183 8.55304 3.52296 8.55304ZM3.41208 10.8677V9.96683H5.12158V10.8677C5.12158 11.339 4.73812 11.7224 4.26681 11.7224C3.79549 11.7224 3.41208 11.339 3.41208 10.8677ZM15.9751 17.4738C15.9683 17.4738 15.9617 17.4738 15.9549 17.4738C13.3693 17.4737 11.2601 15.3757 11.2492 12.7875C11.2382 10.1915 13.3283 8.07267 15.9354 8.06165C15.9422 8.06161 15.949 8.06161 15.9558 8.06161C18.5114 8.06161 20.6502 10.1209 20.6613 12.7479C20.6722 15.3488 18.5763 17.4628 15.9751 17.4738Z" fill="black"/>
<path d="M15.956 8.59277C15.9501 8.59277 15.944 8.59277 15.9381 8.59281C13.86 8.60159 12.1083 10.139 11.8214 12.1822C11.7979 12.3497 11.9145 12.5045 12.082 12.528C12.2492 12.5513 12.4043 12.4348 12.4278 12.2674C12.6731 10.5208 14.1712 9.21268 15.9406 9.20521C15.9458 9.20521 15.9509 9.20517 15.9561 9.20517C17.8908 9.20517 19.5099 10.7642 19.5183 12.7529C19.5267 14.7218 17.9399 16.3223 15.9707 16.3305C15.9654 16.3305 15.9602 16.3306 15.9549 16.3306C14.2377 16.3306 12.8491 15.1273 12.4872 13.5859C12.4485 13.4212 12.2835 13.3193 12.1191 13.3578C11.9545 13.3965 11.8524 13.5612 11.891 13.7259C12.3231 15.5656 13.9767 16.943 15.9558 16.943C15.9616 16.943 15.9674 16.943 15.9732 16.943C18.2807 16.9332 20.1405 15.0581 20.1307 12.7503C20.1211 10.454 18.2501 8.59277 15.956 8.59277Z" fill="black"/>
<path d="M15.0029 12.7718C15.0052 13.2952 15.4316 13.7194 15.9545 13.7194H15.9585C16.1136 13.7188 16.2628 13.6811 16.3962 13.611L17.1697 14.3472C17.2928 14.4642 17.4866 14.4585 17.6026 14.3365C17.7192 14.214 17.7144 14.0202 17.5919 13.9036L16.8186 13.1675C16.8765 13.0427 16.9067 12.9056 16.9061 12.7639C16.9043 12.3464 16.6325 11.9923 16.2572 11.8659L16.2504 10.0756C16.2498 9.90681 16.1128 9.77051 15.9443 9.77051C15.9439 9.77051 15.9434 9.77051 15.9431 9.77051C15.774 9.77116 15.6374 9.90877 15.638 10.0779L15.6448 11.8683C15.2704 11.9976 15.0012 12.3542 15.0029 12.7718ZM15.9531 12.4287H15.9545C16.1408 12.4287 16.2929 12.5799 16.2937 12.7664C16.2945 12.9539 16.1434 13.1062 15.9559 13.107C15.9554 13.107 15.955 13.107 15.9545 13.107C15.7682 13.107 15.6161 12.9558 15.6153 12.7693C15.6146 12.5823 15.7661 12.4295 15.9531 12.4287Z" fill="black"/>
</svg>
