<svg width="22" height="20" viewBox="0 0 22 20" fill="none" xmlns="http://www.w3.org/2000/svg">
<path d="M21.0306 14.6156C21.0307 13.8461 20.4435 13.2038 19.677 13.135C18.9107 13.0663 18.2185 13.594 18.0819 14.3513C17.945 15.1085 18.4088 15.8448 19.1509 16.0486V18.2925H17.5336V3.3865C17.5336 3.16917 17.3574 2.99309 17.1402 2.99309H14.9108V0.403791C14.9108 0.186593 14.7346 0.010376 14.5174 0.010376H6.6491C6.4319 0.010376 6.25569 0.186593 6.25569 0.403791V2.99309H4.02634C3.80914 2.99309 3.63292 3.16917 3.63292 3.3865V18.2925H2.01555V16.0486C2.73299 15.8516 3.19443 15.1542 3.09498 14.4169C2.99567 13.6793 2.36621 13.1291 1.62214 13.1291C0.877929 13.1291 0.248602 13.6793 0.149156 14.4169C0.049846 15.1542 0.511152 15.8516 1.22872 16.0486V18.2925H0.52932C0.312122 18.2925 0.135905 18.4686 0.135905 18.686C0.135905 18.9032 0.312122 19.0794 0.52932 19.0794H20.6372C20.8544 19.0794 21.0306 18.9032 21.0306 18.686C21.0306 18.4686 20.8544 18.2925 20.6372 18.2925H19.9378V16.0486C20.5827 15.8707 21.0298 15.2846 21.0306 14.6156ZM0.922734 14.6156C0.922734 14.2293 1.23583 13.9162 1.62214 13.9162C2.00831 13.9162 2.32154 14.2293 2.32154 14.6156C2.32154 15.0018 2.00831 15.315 1.62214 15.315C1.2361 15.3145 0.923281 15.0017 0.922734 14.6156ZM7.04252 0.797205H14.124V2.99309H7.04252V0.797205ZM4.41975 3.77992H16.7467V18.2925H14.4737V17.2085C14.4737 16.9913 14.2975 16.8151 14.0803 16.8151H13.3809V13.0702C13.3809 12.8529 13.2046 12.6768 12.9874 12.6768H8.17905C7.96185 12.6768 7.78563 12.8529 7.78563 13.0702V16.8151H7.08623C6.86903 16.8151 6.69281 16.9911 6.69281 17.2085V18.2925H4.41975V3.77992ZM12.594 16.8151H10.9767V13.4637H12.594V16.8151ZM10.1898 16.8151H8.57246V13.4637H10.1898V16.8151ZM13.6869 17.6019V18.2925H7.47964V17.6019H13.6869ZM18.845 14.6156C18.845 14.2293 19.158 13.9162 19.5444 13.9162C19.9305 13.9162 20.2438 14.2293 20.2438 14.6156C20.2438 15.0018 19.9305 15.315 19.5444 15.315C19.1583 15.3145 18.8455 15.0017 18.845 14.6156Z" fill="black"/>
</svg>
