<svg width="22" height="22" viewBox="0 0 22 22" fill="none" xmlns="http://www.w3.org/2000/svg">
<path d="M16.654 8.18248C17.4315 9.52395 17.8425 11.0569 17.8425 12.6154C17.8425 14.9802 16.9216 17.2035 15.2494 18.8757C13.5772 20.5478 11.3539 21.4688 8.98914 21.4688C6.62432 21.4688 4.40102 20.5478 2.72886 18.8757C1.05666 17.2035 0.135742 14.9802 0.135742 12.6154C0.135742 10.2506 1.05666 8.02728 2.72886 6.35512C4.40106 4.68296 6.62432 3.762 8.98914 3.762C10.5478 3.762 12.0807 4.173 13.4221 4.95056C13.5781 5.04099 13.6313 5.24076 13.5409 5.39673C13.4504 5.55275 13.2506 5.60589 13.0947 5.51549C11.8526 4.79552 10.433 4.415 8.98919 4.415C4.46742 4.41496 0.788705 8.09367 0.788705 12.6154C0.788705 17.1371 4.46742 20.8158 8.98914 20.8158C13.5109 20.8158 17.1896 17.1371 17.1896 12.6154C17.1896 11.1717 16.809 9.75208 16.0891 8.50994C15.9986 8.35396 16.0518 8.1542 16.2078 8.06376C16.3637 7.97333 16.5636 8.02646 16.654 8.18248ZM20.9349 4.73875L18.1645 7.50919C18.1025 7.57122 18.0191 7.60481 17.9336 7.60481C17.9055 7.60481 17.8771 7.60118 17.8492 7.59371L15.1862 6.88014L9.22001 12.8463C9.15626 12.91 9.07272 12.9419 8.98914 12.9419C8.90556 12.9419 8.82203 12.91 8.75828 12.8463C8.63079 12.7188 8.63079 12.5121 8.75828 12.3846L14.7244 6.41842L14.0109 3.75543C13.9807 3.64275 14.0129 3.52253 14.0954 3.44005L16.8658 0.669609C16.9483 0.587132 17.0685 0.554932 17.1812 0.585091C17.2939 0.615291 17.3818 0.703277 17.412 0.815954L18.1256 3.47894L20.7886 4.19247C20.9013 4.22267 20.9893 4.31065 21.0195 4.42333C21.0497 4.53601 21.0174 4.65627 20.9349 4.73875ZM20.0734 4.67688L17.7745 4.06089C17.6618 4.03069 17.5738 3.94271 17.5436 3.83003L16.9276 1.53119L14.6903 3.76849L15.3551 6.24942L17.836 6.91418L20.0734 4.67688ZM8.98914 8.04225C9.66896 8.04225 10.3233 8.18803 10.934 8.47549C11.0971 8.55222 11.2917 8.48227 11.3684 8.31915C11.4452 8.15599 11.3752 7.96153 11.2121 7.88473C10.5138 7.556 9.76584 7.38929 8.98914 7.38929C6.10746 7.38929 3.76303 9.73371 3.76303 12.6154C3.76303 15.4971 6.10746 17.8415 8.98914 17.8415C11.8708 17.8415 14.2153 15.4971 14.2153 12.6154C14.2153 11.8388 14.0486 11.0909 13.7198 10.3925C13.6431 10.2294 13.4486 10.1594 13.2854 10.2361C13.1222 10.3129 13.0522 10.5074 13.129 10.6705C13.4165 11.2813 13.5623 11.9356 13.5623 12.6154C13.5623 15.137 11.5108 17.1885 8.9891 17.1885C6.46744 17.1885 4.41595 15.137 4.41595 12.6154C4.41595 10.0937 6.46748 8.04225 8.98914 8.04225Z" fill="black"/>
</svg>
