<svg width="176" height="176" viewBox="0 0 176 176" fill="none" xmlns="http://www.w3.org/2000/svg">
<g filter="url(#filter0_d_0_88)">
<rect x="26.584" y="15.8091" width="112.832" height="112.832" rx="5.22371" fill="white"/>
</g>
<path d="M73.8057 26.8987V27.5882H71.5595V34.2119H70.8282V27.5882H68.582V26.8987H73.8057ZM78.1852 33.5537C77.6559 34.0761 77.0081 34.3373 76.242 34.3373C75.4759 34.3373 74.8246 34.0761 74.2883 33.5537C73.759 33.0244 73.4943 32.3732 73.4943 31.6001C73.4943 30.8269 73.759 30.1792 74.2883 29.6568C74.8246 29.1275 75.4759 28.8628 76.242 28.8628C77.0081 28.8628 77.6559 29.1275 78.1852 29.6568C78.7215 30.1792 78.9897 30.8269 78.9897 31.6001C78.9897 32.3732 78.7215 33.0244 78.1852 33.5537ZM74.7794 33.0731C75.1764 33.4701 75.6639 33.6686 76.242 33.6686C76.8201 33.6686 77.3076 33.4701 77.7046 33.0731C78.1016 32.6692 78.3001 32.1781 78.3001 31.6001C78.3001 31.022 78.1016 30.5344 77.7046 30.1374C77.3076 29.7335 76.8201 29.5315 76.242 29.5315C75.6639 29.5315 75.1764 29.7335 74.7794 30.1374C74.3824 30.5344 74.1839 31.022 74.1839 31.6001C74.1839 32.1781 74.3824 32.6692 74.7794 33.0731ZM84.6359 26.8987H85.3255V34.2119H84.6359V33.1881C84.1553 33.9542 83.4519 34.3373 82.5256 34.3373C81.7803 34.3373 81.143 34.0726 80.6137 33.5433C80.0913 33.0139 79.8301 32.3662 79.8301 31.6001C79.8301 30.8339 80.0913 30.1862 80.6137 29.6568C81.143 29.1275 81.7803 28.8628 82.5256 28.8628C83.4519 28.8628 84.1553 29.2459 84.6359 30.012V26.8987ZM81.1151 33.0731C81.5122 33.4701 81.9997 33.6686 82.5778 33.6686C83.1559 33.6686 83.6434 33.4701 84.0404 33.0731C84.4374 32.6692 84.6359 32.1781 84.6359 31.6001C84.6359 31.022 84.4374 30.5344 84.0404 30.1374C83.6434 29.7335 83.1559 29.5315 82.5778 29.5315C81.9997 29.5315 81.5122 29.7335 81.1151 30.1374C80.7181 30.5344 80.5196 31.022 80.5196 31.6001C80.5196 32.1781 80.7181 32.6692 81.1151 33.0731ZM91.2778 28.9882H91.9673V34.2119H91.2778V33.1881C90.7972 33.9542 90.0938 34.3373 89.1674 34.3373C88.4222 34.3373 87.7849 34.0726 87.2555 33.5433C86.7332 33.0139 86.472 32.3662 86.472 31.6001C86.472 30.8339 86.7332 30.1862 87.2555 29.6568C87.7849 29.1275 88.4222 28.8628 89.1674 28.8628C90.0938 28.8628 90.7972 29.2459 91.2778 30.012V28.9882ZM87.757 33.0731C88.154 33.4701 88.6416 33.6686 89.2197 33.6686C89.7977 33.6686 90.2853 33.4701 90.6823 33.0731C91.0793 32.6692 91.2778 32.1781 91.2778 31.6001C91.2778 31.022 91.0793 30.5344 90.6823 30.1374C90.2853 29.7335 89.7977 29.5315 89.2197 29.5315C88.6416 29.5315 88.154 29.7335 87.757 30.1374C87.36 30.5344 87.1615 31.022 87.1615 31.6001C87.1615 32.1781 87.36 32.6692 87.757 33.0731ZM97.1883 28.9882H97.9197L95.6839 34.6925C95.4819 35.2079 95.1929 35.6119 94.8168 35.9044C94.4476 36.2039 94.0332 36.3362 93.5735 36.3014V35.6537C94.2004 35.7233 94.6775 35.3611 95.0048 34.5671L95.1407 34.2433L92.8004 28.9882H93.5317L95.4959 33.3657L97.1883 28.9882Z" fill="#686C75"/>
<rect x="64.1953" y="51.3306" width="9.40268" height="9.40268" rx="1.04474" fill="#E9E9E9"/>
<rect x="64.1953" y="65.957" width="9.40268" height="9.40268" rx="1.04474" fill="#E9E9E9"/>
<rect x="64.1953" y="80.5835" width="9.40268" height="9.40268" rx="1.04474" fill="#E9E9E9"/>
<rect x="64.1953" y="95.2097" width="9.40268" height="9.40268" rx="1.04474" fill="#E9E9E9"/>
<rect x="64.1953" y="109.836" width="9.40268" height="9.40268" rx="1.04474" fill="#E9E9E9"/>
<rect x="50.6143" y="65.957" width="9.40268" height="9.40268" rx="1.04474" fill="#FD5B2F"/>
<rect x="50.6143" y="80.5835" width="9.40268" height="9.40268" rx="1.04474" fill="#E9E9E9"/>
<rect x="50.6143" y="95.2097" width="9.40268" height="9.40268" rx="1.04474" fill="#E9E9E9"/>
<rect x="50.6143" y="109.836" width="9.40268" height="9.40268" rx="1.04474" fill="#E9E9E9"/>
<rect x="37.0322" y="65.957" width="9.40268" height="9.40268" rx="1.04474" fill="#E9E9E9"/>
<rect x="37.0322" y="80.5835" width="9.40268" height="9.40268" rx="1.04474" fill="#E9E9E9"/>
<rect x="37.0322" y="95.2097" width="9.40268" height="9.40268" rx="1.04474" fill="#E9E9E9"/>
<rect x="37.0322" y="109.836" width="9.40268" height="9.40268" rx="1.04474" fill="#FD5B2F"/>
<rect x="77.7773" y="51.3306" width="9.40268" height="9.40268" rx="1.04474" fill="#E9E9E9"/>
<rect x="77.7773" y="65.957" width="9.40268" height="9.40268" rx="1.04474" fill="#E9E9E9"/>
<rect x="77.7773" y="80.5835" width="9.40268" height="9.40268" rx="1.04474" fill="#E9E9E9"/>
<rect x="77.7773" y="95.2097" width="9.40268" height="9.40268" rx="1.04474" fill="#E9E9E9"/>
<rect x="77.7773" y="109.836" width="9.40268" height="9.40268" rx="1.04474" fill="#E9E9E9"/>
<rect x="91.3584" y="51.3306" width="9.40268" height="9.40268" rx="1.04474" fill="#E9E9E9"/>
<rect x="91.3584" y="65.957" width="9.40268" height="9.40268" rx="1.04474" fill="#E9E9E9"/>
<rect x="91.3584" y="80.5835" width="9.40268" height="9.40268" rx="1.04474" fill="#E9E9E9"/>
<rect x="91.3584" y="95.2097" width="9.40268" height="9.40268" rx="1.04474" fill="#E9E9E9"/>
<rect x="104.94" y="51.3306" width="9.40268" height="9.40268" rx="1.04474" fill="#E9E9E9"/>
<rect x="104.94" y="65.957" width="9.40268" height="9.40268" rx="1.04474" fill="#E9E9E9"/>
<rect x="104.94" y="80.5835" width="9.40268" height="9.40268" rx="1.04474" fill="#E9E9E9"/>
<rect x="104.94" y="95.2097" width="9.40268" height="9.40268" rx="1.04474" fill="#FD5B2F"/>
<rect x="118.521" y="51.3306" width="9.40268" height="9.40268" rx="1.04474" fill="#E9E9E9"/>
<rect x="118.521" y="65.957" width="9.40268" height="9.40268" rx="1.04474" fill="#E9E9E9"/>
<rect x="118.521" y="80.5835" width="9.40268" height="9.40268" rx="1.04474" fill="#E9E9E9"/>
<rect x="118.521" y="95.2097" width="9.40268" height="9.40268" rx="1.04474" fill="#E9E9E9"/>
<line x1="128.969" y1="42.4501" x2="43.2999" y2="42.4501" stroke="#E9E9E9" stroke-width="1.04474"/>
<defs>
<filter id="filter0_d_0_88" x="0.465428" y="0.137948" width="175.517" height="175.517" filterUnits="userSpaceOnUse" color-interpolation-filters="sRGB">
<feFlood flood-opacity="0" result="BackgroundImageFix"/>
<feColorMatrix in="SourceAlpha" type="matrix" values="0 0 0 0 0 0 0 0 0 0 0 0 0 0 0 0 0 0 127 0" result="hardAlpha"/>
<feOffset dx="5.22371" dy="15.6711"/>
<feGaussianBlur stdDeviation="15.6711"/>
<feColorMatrix type="matrix" values="0 0 0 0 0 0 0 0 0 0 0 0 0 0 0 0 0 0 0.1 0"/>
<feBlend mode="normal" in2="BackgroundImageFix" result="effect1_dropShadow_0_88"/>
<feBlend mode="normal" in="SourceGraphic" in2="effect1_dropShadow_0_88" result="shape"/>
</filter>
</defs>
</svg>
