<svg width="51" height="53" viewBox="0 0 51 53" fill="none" xmlns="http://www.w3.org/2000/svg">
<path d="M50.1257 19.8175V11.7598C50.1221 8.59152 47.5544 6.02385 44.3861 6.02017H42.8748V5.11395C42.8617 2.5426 40.7735 0.465881 38.2026 0.465881C35.6317 0.465881 33.5439 2.5426 33.53 5.11395V6.02017H16.6495V5.11395C16.6364 2.5426 14.5482 0.465881 11.9773 0.465881C9.40631 0.465881 7.31855 2.5426 7.30464 5.11395V6.02017H5.79292C2.62506 6.02385 0.057393 8.59152 0.0537109 11.7598V46.9634C0.057393 50.1316 2.62506 52.6993 5.79292 52.703H44.3861C47.5544 52.6993 50.1221 50.1316 50.1257 46.9634V20.646C50.2166 20.3772 50.2166 20.0863 50.1257 19.8175ZM38.2026 3.05442C39.3391 3.05605 40.2601 3.97659 40.2613 5.11395V7.86573C40.2527 8.99614 39.333 9.90808 38.2018 9.90808C37.071 9.90808 36.1517 8.99614 36.1427 7.86573V5.11395C36.1439 3.97659 37.0652 3.05564 38.2026 3.05442ZM9.91731 5.11395C9.92631 3.98272 10.8456 3.07078 11.9764 3.07078C13.1077 3.07078 14.0266 3.98272 14.036 5.11395V7.86573C14.0266 8.99614 13.1077 9.90808 11.9764 9.90808C10.8456 9.90808 9.92631 8.99614 9.91731 7.86573V5.11395ZM5.79292 8.63325H7.36846C7.74404 10.8859 9.6927 12.5371 11.9764 12.5371C14.2606 12.5371 16.2093 10.8859 16.5848 8.63325H33.5942C33.9698 10.8859 35.9189 12.5371 38.2026 12.5371C40.4863 12.5371 42.4354 10.8859 42.8106 8.63325H44.3861C46.1122 8.63529 47.5106 10.0337 47.5127 11.7598V18.9248H2.66679V11.7602C2.66843 10.0341 4.06764 8.63529 5.79292 8.63325ZM44.3861 50.0899H5.79292C4.06764 50.0879 2.66884 48.6895 2.66679 46.9634V21.5379H47.5127V46.9634C47.5106 48.6895 46.1122 50.0879 44.3861 50.0899Z" fill="#FD5B2F"/>
</svg>
